<svg width="30" height="30" xmlns="http://www.w3.org/2000/svg"><path d="M15 30c8.284 0 15-6.716 15-15 0-8.284-6.716-15-15-15C6.716 0 0 6.716 0 15c0 8.284 6.716 15 15 15z" fill="#53C7CD"/><path d="M23.964 25.013A14.934 14.934 0 0114.98 28 14.93 14.93 0 017 25.704c.05-.583.091-1.078.1-1.19.126-1.66.523-3.219 1.23-4.654.792-1.608 1.856-2.884 3.207-3.806.106-.073.177-.078.276.023 1.01 1.031 2.177 1.59 3.498 1.647 1.463.062 2.762-.484 3.89-1.612.124-.124.21-.134.345-.038 2.21 1.573 3.6 3.883 4.189 6.888.13.668.162 1.365.23 2.05z" fill="#FFF" fill-rule="evenodd"/><path d="M15.604 7.001C13.026 6.945 10.987 9.03 11 11.486A4.48 4.48 0 0015.45 16c2.496.026 4.555-1.943 4.551-4.51-.004-2.553-2.053-4.438-4.396-4.489" fill="#FEFEFE"/></svg>