<?xml version="1.0" encoding="utf-8"?><svg xmlns="http://www.w3.org/2000/svg" xmlns:xlink="http://www.w3.org/1999/xlink"><symbol viewBox="0 0 29 29" id="ico-agent_blue" xmlns="http://www.w3.org/2000/svg"><g fill="none" stroke="#53C7CD" stroke-width="1.5" stroke-linecap="round" stroke-linejoin="round"><path d="M21.75 15.104a7.25 7.25 0 11-14.5 0v-2.416a7.25 7.25 0 0114.5 0v2.416z"/><path d="M11.48 14.802a.302.302 0 110 .604.302.302 0 010-.604m6.04 0a.302.302 0 110 .604.302.302 0 010-.604m-1.311 3.219a2.417 2.417 0 01-3.418 0m8.959-4.729s-4.833 0-7.25-3.625c-2.417 3.625-7.25 3.625-7.25 3.625M.604 7.854V4.23A3.625 3.625 0 014.23.604h3.625m20.541 7.25V4.23A3.625 3.625 0 0024.77.604h-3.625M.604 21.146v3.625a3.625 3.625 0 003.625 3.625h3.625m20.542-7.25v3.625a3.625 3.625 0 01-3.625 3.625h-3.625"/></g></symbol><symbol viewBox="0 0 12 12" id="ico-cross_gray" xmlns="http://www.w3.org/2000/svg"><path d="M9.844 9.834L1.349 1.358m8.486-.008L1.357 9.843" fill="none" stroke="#D8D8D8" stroke-width="2" stroke-linecap="round"/></symbol><symbol viewBox="0 0 29 26" id="ico-dashboard" xmlns="http://www.w3.org/2000/svg"><g fill="none" stroke="#9B9B9B" stroke-linecap="round" stroke-linejoin="round"><path d="M28.396 22.354a2.417 2.417 0 01-2.417 2.417H3.021a2.417 2.417 0 01-2.417-2.417V3.021A2.417 2.417 0 013.021.604h22.958a2.417 2.417 0 012.417 2.417v19.333zM.604 6.646h27.792M4.833 19.979H7.25m7.25-9.669v2.416m-6.837.414l1.708 1.708m14.799 5.128h-2.416M5.434.604v6.042M10.267.604v6.042"/><path d="M20.3 14.418c.352-.484.221-.626-.292-.323L14.62 17.28c-.573.38-1 .944-1.208 1.599l-.121.52a.854.854 0 00.81 1.109l.595.032a2.24 2.24 0 001.722-.813l3.881-5.308z"/></g></symbol><symbol viewBox="0 0 11 11" id="ico-edit_white" xmlns="http://www.w3.org/2000/svg"><path d="M10.414 2.072l-.976.976-1.986-1.986-.753.753 1.986 1.986-4.871 4.87-1.986-1.985-.753.754L3.06 9.425l-.485.486-.01-.01a.384.384 0 01-.244.177l-1.852.413a.385.385 0 01-.46-.46L.422 8.18a.386.386 0 01.177-.246l-.01-.009L8.428.086a.295.295 0 01.416 0l1.57 1.57a.295.295 0 010 .416z" fill="#FFF"/></symbol><symbol viewBox="0 0 14 14" id="ico-plus_ocean" xmlns="http://www.w3.org/2000/svg"><path d="M6.993 1l.014 12M1 7.005l12-.01" fill="none" stroke="#16A8AA" stroke-width="2" stroke-linecap="round"/></symbol><symbol viewBox="0 0 14 14" id="ico-plus_white" xmlns="http://www.w3.org/2000/svg"><path d="M6.993 1l.014 12M1 7.005l12-.01" fill="none" stroke="#FFF" stroke-width="2" stroke-linecap="round"/></symbol><symbol viewBox="0 0 13 13" id="ico-print_white" xmlns="http://www.w3.org/2000/svg"><g fill="none" stroke="#FFF" stroke-linecap="round" stroke-linejoin="round"><path d="M4.063 10.562h4.875M4.063 8.937h4.875m-5.958.001H1.353A1.087 1.087 0 01.271 7.854v-3.25a1.087 1.087 0 011.083-1.083h10.292a1.087 1.087 0 011.083 1.083v3.25a1.087 1.087 0 01-1.083 1.084H10.02m-7.04-6.5V.27h5.192c.143 0 .281.057.383.159l1.307 1.307c.102.102.159.24.159.383v.318"/><path d="M10.02 12.188a.54.54 0 01-.54.541H3.52a.542.542 0 01-.54-.541V7.311h7.04v4.875zM1.896 5.687a.542.542 0 100-1.083.542.542 0 000 1.083zM7.854.27v2.167h2.167"/></g></symbol><symbol viewBox="0 0 29 29" id="ico-remindersl" xmlns="http://www.w3.org/2000/svg"><g fill="none" stroke="#9B9B9B" stroke-linecap="round" stroke-linejoin="round"><path d="M23.163 7.055a2.08 2.08 0 10-4.159 0v1.906a.52.52 0 01-.52.52h5.198a.52.52 0 01-.52-.52V7.055zm-1.589 3.255c-.074.3-.27.5-.49.5-.221 0-.417-.2-.49-.5m.316-6.027v.694"/><path d="M21.065.604a7.194 7.194 0 00-7.17 7.331 7.183 7.183 0 00.945 3.858l-2.152 4.52 4.52-2.154A7.327 7.327 0 1021.065.604h0zm-1.127 16.918v10.875M.604 28.396V6.646a2.417 2.417 0 012.417-2.417h9.062m-.603 4.835H.603M9.667 22.96a2.719 2.719 0 100-5.438 2.719 2.719 0 000 5.438zm5.437 5.436a5.611 5.611 0 00-10.875 0M8.458 6.647h3.021"/></g></symbol><symbol viewBox="0 0 15 11" id="ico-remove_white" xmlns="http://www.w3.org/2000/svg"><path d="M6 3.5H2a1 1 0 01-1-1v-1a1 1 0 011-1h11a1 1 0 011 1v1a1 1 0 01-1 1H9m0 0h3.5l-.434 6.071a1 1 0 01-1 .929H3.931a1 1 0 01-1-.929L2.5 3.5H9 6M6 4v6.5m3 0V4" fill="none" stroke="#FFF" stroke-linecap="round" stroke-linejoin="round"/></symbol><symbol viewBox="0 0 29 28" id="ico-report" xmlns="http://www.w3.org/2000/svg"><g fill="none" stroke="#9B9B9B" stroke-linecap="round" stroke-linejoin="round"><path d="M8.458 13.292a4.23 4.23 0 100-8.459 4.23 4.23 0 000 8.459z"/><path d="M8.458 4.833v4.23h4.23M10.875 25.98a8.433 8.433 0 001.813-4.834m5.437 4.834a8.433 8.433 0 01-1.813-4.834M9.061 25.98h10.875M.604 17.52h27.792"/><path d="M1.603.604h25.794q.098 0 .195.02.096.019.187.056.091.038.173.093.082.054.151.124.07.07.124.151.055.082.093.173.037.09.057.187.019.097.019.195v18.544q0 .098-.02.195-.019.096-.056.187-.038.091-.093.173-.054.082-.124.151-.07.07-.151.124-.082.055-.173.093-.09.037-.187.057-.097.019-.195.019H1.603q-.098 0-.195-.02-.096-.019-.187-.056-.091-.038-.173-.093-.082-.054-.151-.124-.07-.07-.124-.151-.055-.082-.093-.173-.037-.09-.057-.187-.019-.097-.019-.195V1.603q0-.098.02-.195.019-.096.056-.187.038-.091.093-.173Q.827.966.897.897q.07-.07.151-.124.082-.055.173-.093.09-.037.187-.057.097-.019.195-.019h0z"/><path d="M16.313 7.25l1.812-2.417 3.625 3.021 3.02-3.625m-1.207 9.667v-1.813m-2.417 1.813v-2.417m-2.416 2.417V10.27m-2.417 3.626v-1.813"/></g></symbol><symbol viewBox="0 0 29 25" id="ico-settings" xmlns="http://www.w3.org/2000/svg"><g fill="none" stroke="#9B9B9B" stroke-linecap="round" stroke-linejoin="round"><path d="M2.603.605h23.794q.098 0 .196.01.097.01.194.029.096.019.19.047.094.029.185.067.09.037.177.083.087.047.168.101.082.055.158.117.076.062.145.132.07.07.132.145.062.076.117.158.054.081.1.168.047.087.085.177.037.091.066.185.028.094.047.19.02.097.03.194.009.098.009.196v18.96q0 .099-.01.197-.01.097-.029.194-.019.096-.047.19-.029.094-.066.185-.038.09-.084.177-.047.087-.101.168-.055.082-.117.158-.062.076-.132.145-.07.07-.145.132-.076.062-.158.117-.081.054-.168.1-.086.047-.177.085-.09.037-.185.066-.094.028-.19.047-.097.02-.194.03-.098.009-.196.009H2.603q-.098 0-.196-.01t-.194-.029q-.096-.019-.19-.047-.094-.029-.185-.066-.09-.038-.177-.084-.087-.047-.168-.101-.082-.055-.158-.117-.076-.062-.145-.132-.07-.07-.132-.145-.062-.076-.117-.158-.055-.081-.1-.168-.047-.087-.085-.177-.037-.091-.066-.185-.028-.094-.047-.19-.02-.097-.03-.194-.009-.098-.009-.196V2.605q0-.099.01-.197.01-.097.029-.194.019-.096.047-.19.029-.094.066-.185.038-.09.084-.177.046-.087.101-.168.055-.082.117-.158.062-.076.132-.145.07-.07.145-.132.076-.062.158-.117.081-.054.168-.1.086-.047.177-.084.09-.038.185-.067.094-.028.19-.047.096-.02.194-.029.098-.01.196-.01h0zM.604 6.647h27.792"/><path d="M4.258 3.324a.302.302 0 110 .604.302.302 0 010-.604m3.625 0a.302.302 0 110 .604.302.302 0 010-.604M14.5 15.71a1.208 1.208 0 100-2.417 1.208 1.208 0 000 2.417z"/><path d="M15.526 9.827l.356 1.17a.801.801 0 00.946.549l1.186-.276a1.079 1.079 0 011.027 1.787l-.83.896a.808.808 0 000 1.097l.83.895a1.08 1.08 0 01-1.027 1.787l-1.186-.275a.802.802 0 00-.946.548l-.356 1.17a1.07 1.07 0 01-2.054 0l-.357-1.17a.802.802 0 00-.946-.548l-1.185.275a1.079 1.079 0 01-1.027-1.787l.83-.895a.808.808 0 000-1.097l-.83-.896a1.079 1.079 0 011.027-1.787l1.185.276a.801.801 0 00.946-.549l.357-1.17a1.07 1.07 0 012.054 0z"/></g></symbol><symbol viewBox="0 0 26 29" id="ico-sites" xmlns="http://www.w3.org/2000/svg"><g fill="none" stroke="#9B9B9B" stroke-linecap="round" stroke-linejoin="round"><path d="M13.896 10.875a6.646 6.646 0 10-8.458 6.388v1.466l-1.209 1.208 1.209 1.209v1.208l-1.209 1.208 1.209 1.209v1.812l1.812 1.813 1.813-1.813v-9.32a6.646 6.646 0 004.833-6.388z"/><path d="M7.25 11.477a2.417 2.417 0 100-4.834 2.417 2.417 0 000 4.834zm1.813 6.663a6.654 6.654 0 006.555.04l1.299 1.153v1.813h1.812l.604.634v1.783h1.592l1.283 1.208h2.563v-2.563l-6.59-6.59a6.646 6.646 0 00-6.646-9.828"/><path d="M7.25 8.458V3.021a2.417 2.417 0 114.833 0v2.722"/></g></symbol><symbol viewBox="0 0 134 32" id="logo" xmlns="http://www.w3.org/2000/svg"><defs><path d="M6.816 10.542q-.997.47-2.277.47-2.111 0-3.325-1.375Q0 8.261 0 5.753v-.53Q0 3.65.548 2.468q.548-1.18 1.578-1.824Q3.156 0 4.51 0q1.95 0 3.133 1.026Q8.828 2.052 8.99 3.855H6.415q-.03-.979-.493-1.405-.463-.427-1.412-.427-.964 0-1.413.721-.449.72-.47 2.303v.757q0 1.714.43 2.45.43.736 1.482.736.89 0 1.361-.42c.314-.28.48-.723.5-1.331h2.568q-.052 1.118-.604 1.975-.551.857-1.548 1.328zm7.772.47q1.368 0 2.439-.65 1.07-.651 1.651-1.858.581-1.206.581-2.773v-.493q-.007-1.545-.599-2.74c-.395-.797-.948-1.412-1.659-1.843Q15.934.007 14.573.007q-1.375 0-2.453.655-1.078.655-1.655 1.858-.578 1.202-.578 2.777V5.9c.02 1.01.227 1.905.622 2.685q.592 1.17 1.651 1.799 1.06.629 2.428.629zm-1.552-2.86q.522.845 1.552.845c.652 0 1.155-.277 1.508-.831q.53-.831.537-2.391v-.493q0-1.596-.533-2.424-.534-.828-1.527-.828-1.942 0-2.052 2.914l-.007.787q0 1.574.522 2.42z" transform="rotate(-90 21.42 8.3)" id="ma"/><path d="M13.257 22.363v-2.357H2.897V2.102L0 0v22.363h13.257zM83.915 3.386q.81 0 1.231-.45c.28-.3.42-.676.42-1.126 0-.45-.14-.83-.42-1.141q-.42-.466-1.231-.466c-.54 0-.948.156-1.224.466-.275.31-.412.69-.412 1.14 0 .451.137.827.413 1.127.275.3.683.45 1.223.45zm-56.122 16.14q-2.042 3.137-6.125 3.137-3.303 0-5.375-2.17-2.072-2.168-2.072-5.802v-.51q0-2.417.923-4.316.924-1.9 2.583-2.973 1.659-1.074 3.595-1.074 3.168 0 4.925 2.087 1.756 2.087 1.756 5.976v1.156H16.998q.06 2.402 1.404 3.88 1.344 1.48 3.416 1.48c.98 0 1.811-.2 2.492-.601a6.27 6.27 0 001.787-1.592l1.696 1.322zm11.879 1.125q-1.937 2.012-4.624 2.012c-1.602 0-2.915-.453-3.941-1.358q-1.539-1.36-1.539-3.446 0-2.537 1.93-3.94 1.928-1.405 5.427-1.405h2.702v-1.276c0-.97-.29-1.744-.87-2.32-.581-.575-1.437-.863-2.568-.863-.99 0-1.822.25-2.492.751q-1.006.75-1.006 1.817h-2.793c0-.811.288-1.594.864-2.35q.863-1.133 2.342-1.794c.986-.44 2.07-.66 3.25-.66q2.808 0 4.399 1.403c1.06.936 1.611 2.225 1.651 3.866v7.477c0 1.491.19 2.677.571 3.558v.24h-2.913q-.24-.48-.39-1.712zm16.398.699q-1.742 1.313-4.519 1.313c-1.301 0-2.452-.23-3.453-.69-1-.46-1.784-1.104-2.35-1.93-.565-.825-.848-1.718-.848-2.68h2.778q.075 1.397 1.118 2.215c.696.546 1.614.818 2.755.818q1.576 0 2.53-.638c.635-.425.953-.993.953-1.704 0-.75-.283-1.333-.848-1.749q-.848-.623-2.958-1.073c-1.406-.3-2.522-.66-3.348-1.081-.826-.42-1.436-.921-1.831-1.502-.396-.58-.593-1.27-.593-2.071 0-1.332.563-2.458 1.689-3.378q1.689-1.382 4.316-1.382c1.842 0 3.335.476 4.481 1.427 1.146.95 1.72 2.167 1.72 3.648h-2.793c0-.76-.323-1.416-.968-1.967-.646-.55-1.46-.826-2.44-.826-1.011 0-1.802.22-2.372.661q-.856.66-.856 1.727c0 .67.265 1.176.796 1.516q.795.51 2.875.976c1.386.31 2.51.68 3.37 1.11.861.431 1.5.95 1.914 1.555q.624.908.624 2.214 0 2.177-1.742 3.49zm10.918 1.313q4.084 0 6.126-3.137l-1.697-1.322q-.766.991-1.787 1.592c-.68.4-1.51.6-2.492.6-1.381 0-2.52-.493-3.415-1.479q-1.344-1.478-1.404-3.88h11.005V13.88q0-3.889-1.757-5.976c-1.17-1.391-2.812-2.087-4.924-2.087-1.291 0-2.49.358-3.596 1.074-1.106.715-1.967 1.706-2.582 2.972-.616 1.267-.924 2.705-.924 4.317v.51q0 3.633 2.072 5.803t5.375 2.17zm28.22 0c1.462 0 2.755-.35 3.881-1.05 1.126-.701 1.992-1.68 2.598-2.936.605-1.256.908-2.675.908-4.256v-.195q0-3.814-2.049-6.11c-1.367-1.532-3.156-2.298-5.368-2.298-1.43 0-2.704.346-3.82 1.036-1.116.691-1.987 1.672-2.613 2.943-.625 1.271-.938 2.702-.938 4.294v.195q0 3.783 2.05 6.08c1.365 1.532 3.15 2.297 5.352 2.297zM85.281 6.12v16.244h-2.777V6.12h2.777zm-60.055 6.636h-8.137q.27-2.207 1.41-3.431Q19.642 8.1 21.323 8.1c1.161 0 2.082.388 2.763 1.164q1.02 1.164 1.14 3.28v.21zm37.183 0h8.137v-.21c-.08-1.412-.46-2.505-1.14-3.281Q68.383 8.1 66.642 8.1c-1.121 0-2.062.408-2.823 1.224q-1.14 1.224-1.41 3.43zm29.444 6.005c.836 1.09 1.954 1.636 3.356 1.636q2.116 0 3.362-1.659c.831-1.106 1.247-2.654 1.247-4.646q0-2.673-1.269-4.332c-.846-1.106-1.97-1.659-3.37-1.659q-2.057 0-3.319 1.637-1.26 1.636-1.26 4.684 0 2.702 1.253 4.339zm-56.4 1.486c-.91 0-1.656-.245-2.237-.735-.58-.49-.87-1.171-.87-2.042q0-2.988 5.104-2.988h2.177v3.333c-.35.72-.916 1.306-1.697 1.757-.78.45-1.606.675-2.477.675z" transform="translate(.18 .028)" id="mb"/><path d="M1.72 3.318c.573 0 1.008-.156 1.304-.467.297-.312.445-.7.445-1.162 0-.482-.148-.885-.445-1.206C2.728.16 2.293 0 1.72 0 1.146 0 .716.16.43.483.144.804 0 1.207 0 1.689c0 .463.143.85.43 1.162.286.311.716.467 1.29.467z" transform="translate(75.588 19.243)" id="mc"/></defs><path d="M3.65 11.339h2.074q.043 0 .083.016.04.017.072.048.03.03.047.07.017.04.017.085v18.737q0 .043-.017.084-.017.04-.047.07-.031.031-.072.048-.04.017-.083.017H3.65q-.044 0-.084-.017-.04-.017-.071-.047-.031-.031-.048-.071-.016-.04-.016-.084V11.558q0-.044.016-.084.017-.04.048-.071.03-.031.07-.048.041-.016.085-.016zm2.055-5.936h2.53q.043 0 .084.017.04.017.07.047.032.031.048.071.017.04.017.084v3.671q0 .044-.017.084-.016.04-.047.071-.031.031-.071.048-.04.016-.084.016h-2.53q-.043 0-.083-.016-.04-.017-.072-.048-.03-.03-.047-.07-.017-.041-.017-.085v-3.67q0-.044.017-.085.017-.04.047-.07.031-.031.072-.048.04-.017.083-.017zM17.921.177l-1.218 1.677q-.026.036-.036.078-.01.042-.004.085.007.043.03.08.023.038.058.063l10.592 7.696q.012.009.025.016l.028.012q.014.005.029.008.014.004.03.005h.03q.015 0 .03-.004l.028-.008q.015-.004.028-.011l.026-.016q.012-.008.023-.019.011-.01.02-.021.01-.012.018-.025.008-.013.014-.027.006-.013.01-.028.005-.014.007-.03.002-.014.002-.03l.002-2.56q0-.053-.024-.1-.024-.047-.066-.077L18.227.129q-.035-.026-.078-.036-.042-.01-.085-.003-.043.006-.08.03-.037.022-.063.057z" fill="#ABD856"/><path d="M18.227.177l1.219 1.677q.025.036.036.078.01.042.003.085-.007.043-.03.08-.022.038-.058.063L1.653 15.052q-.035.026-.077.036-.043.01-.086.003-.043-.006-.08-.03-.037-.022-.063-.057L.13 13.327q-.026-.036-.036-.078-.01-.042-.003-.085.006-.043.03-.08.022-.038.057-.063L17.922.129q.035-.026.077-.036.042-.01.085-.003.044.006.08.03.038.022.063.057z" fill="#ABD856"/><g fill-rule="evenodd"><use fill="#FFF" xlink:href="#ma"/><use fill="#ABD856" xlink:href="#ma"/></g><g fill-rule="evenodd" transform="translate(31.009 8.134)"><use fill="#FFF" xlink:href="#mb"/><use fill="#53C7CD" xlink:href="#mb"/></g><g transform="translate(31.009 8.134)"><use fill="#FFF" xlink:href="#mc"/><use fill="#ABD856" xlink:href="#mc"/></g></symbol><symbol viewBox="0 0 30 30" id="user-icon" xmlns="http://www.w3.org/2000/svg"><path d="M15 30c8.284 0 15-6.716 15-15 0-8.284-6.716-15-15-15C6.716 0 0 6.716 0 15c0 8.284 6.716 15 15 15z" fill="#53C7CD"/><path d="M23.964 25.013A14.934 14.934 0 0114.98 28 14.93 14.93 0 017 25.704c.05-.583.091-1.078.1-1.19.126-1.66.523-3.219 1.23-4.654.792-1.608 1.856-2.884 3.207-3.806.106-.073.177-.078.276.023 1.01 1.031 2.177 1.59 3.498 1.647 1.463.062 2.762-.484 3.89-1.612.124-.124.21-.134.345-.038 2.21 1.573 3.6 3.883 4.189 6.888.13.668.162 1.365.23 2.05z" fill="#FFF" fill-rule="evenodd"/><path d="M15.604 7.001C13.026 6.945 10.987 9.03 11 11.486A4.48 4.48 0 0015.45 16c2.496.026 4.555-1.943 4.551-4.51-.004-2.553-2.053-4.438-4.396-4.489" fill="#FEFEFE"/></symbol></svg>